<svg width="38" height="50" viewBox="0 0 38 50" fill="none" xmlns="http://www.w3.org/2000/svg">
<g clip-path="url(#clip0_4244_663)">
<path d="M18.75 0C14.668 0 11.1914 2.60742 9.91211 6.25H6.25C2.80273 6.25 0 9.05273 0 12.5V43.75C0 47.1973 2.80273 50 6.25 50H31.25C34.6973 50 37.5 47.1973 37.5 43.75V12.5C37.5 9.05273 34.6973 6.25 31.25 6.25H27.5879C26.3086 2.60742 22.832 0 18.75 0ZM18.75 6.25C19.5788 6.25 20.3737 6.57924 20.9597 7.16529C21.5458 7.75134 21.875 8.5462 21.875 9.375C21.875 10.2038 21.5458 10.9987 20.9597 11.5847C20.3737 12.1708 19.5788 12.5 18.75 12.5C17.9212 12.5 17.1263 12.1708 16.5403 11.5847C15.9542 10.9987 15.625 10.2038 15.625 9.375C15.625 8.5462 15.9542 7.75134 16.5403 7.16529C17.1263 6.57924 17.9212 6.25 18.75 6.25ZM7.03125 26.5625C7.03125 25.9409 7.27818 25.3448 7.71772 24.9052C8.15726 24.4657 8.7534 24.2188 9.375 24.2188C9.9966 24.2188 10.5927 24.4657 11.0323 24.9052C11.4718 25.3448 11.7188 25.9409 11.7188 26.5625C11.7188 27.1841 11.4718 27.7802 11.0323 28.2198C10.5927 28.6593 9.9966 28.9062 9.375 28.9062C8.7534 28.9062 8.15726 28.6593 7.71772 28.2198C7.27818 27.7802 7.03125 27.1841 7.03125 26.5625ZM17.1875 25H29.6875C30.5469 25 31.25 25.7031 31.25 26.5625C31.25 27.4219 30.5469 28.125 29.6875 28.125H17.1875C16.3281 28.125 15.625 27.4219 15.625 26.5625C15.625 25.7031 16.3281 25 17.1875 25ZM7.03125 35.9375C7.03125 35.3159 7.27818 34.7198 7.71772 34.2802C8.15726 33.8407 8.7534 33.5938 9.375 33.5938C9.9966 33.5938 10.5927 33.8407 11.0323 34.2802C11.4718 34.7198 11.7188 35.3159 11.7188 35.9375C11.7188 36.5591 11.4718 37.1552 11.0323 37.5948C10.5927 38.0343 9.9966 38.2812 9.375 38.2812C8.7534 38.2812 8.15726 38.0343 7.71772 37.5948C7.27818 37.1552 7.03125 36.5591 7.03125 35.9375ZM15.625 35.9375C15.625 35.0781 16.3281 34.375 17.1875 34.375H29.6875C30.5469 34.375 31.25 35.0781 31.25 35.9375C31.25 36.7969 30.5469 37.5 29.6875 37.5H17.1875C16.3281 37.5 15.625 36.7969 15.625 35.9375Z" fill="black"/>
</g>
<defs>
<clipPath id="clip0_4244_663">
<rect width="37.5" height="50" fill="white"/>
</clipPath>
</defs>
</svg>
