<svg width="44" height="50" viewBox="0 0 44 50" fill="none" xmlns="http://www.w3.org/2000/svg">
<g clip-path="url(#clip0_4244_658)">
<path d="M21.416 0.0490723C21.7187 -0.00952149 22.0312 -0.00952149 22.3339 0.0490723L41.8652 3.95532C42.9589 4.17017 43.75 5.13696 43.75 6.25024C43.75 7.36353 42.9589 8.33032 41.8652 8.54517L34.375 10.0491V15.6252C34.375 22.5295 28.7792 28.1252 21.875 28.1252C14.9707 28.1252 9.37495 22.5295 9.37495 15.6252V10.0491L4.68745 9.11157V15.469L6.22066 23.1252C6.30855 23.5842 6.19136 24.0627 5.89839 24.4241C5.60542 24.7854 5.1562 25.0002 4.68745 25.0002H1.56245C1.0937 25.0002 0.65425 24.7952 0.351515 24.4241C0.0487808 24.053 -0.0684067 23.5842 0.0292495 23.1252L1.56245 15.469V8.45728C0.634718 8.13501 -4.7328e-05 7.2561 -4.7328e-05 6.25024C-4.7328e-05 5.13696 0.790968 4.17017 1.88472 3.95532L21.416 0.0490723ZM10.9277 32.0022C11.9531 31.6702 13.0566 32.0413 13.7988 32.8323L20.7324 40.2053C21.3476 40.8596 22.3925 40.8596 23.0078 40.2053L29.9414 32.8323C30.6835 32.0413 31.7871 31.6702 32.8125 32.0022C39.1601 34.0432 43.75 39.9807 43.75 47.0022C43.75 48.6624 42.4023 50.0002 40.7519 50.0002H2.998C1.34761 50.0002 -4.7328e-05 48.6526 -4.7328e-05 47.0022C-4.7328e-05 39.9807 4.5898 34.0432 10.9277 32.0022Z" fill="black"/>
</g>
<defs>
<clipPath id="clip0_4244_658">
<rect width="43.75" height="50" fill="white"/>
</clipPath>
</defs>
</svg>
