<svg width="57" height="50" viewBox="0 0 57 50" fill="none" xmlns="http://www.w3.org/2000/svg">
<g clip-path="url(#clip0_4244_683)">
<path d="M28.3984 4.74609L36.0547 7.64648L28.125 10.6934L20.1953 7.64648L27.8516 4.74609C28.0273 4.67773 28.2227 4.67773 28.4082 4.74609H28.3984ZM13.2812 9.0332V19.9902C13.1543 20.0293 13.0273 20.0684 12.9004 20.1172L3.52539 23.6719C1.40625 24.4727 0 26.5137 0 28.7793V40.4199C0 42.5879 1.2793 44.5508 3.27148 45.4297L12.6465 49.5508C14.0527 50.166 15.6445 50.166 17.0508 49.5508L28.125 44.6777L39.209 49.5508C40.6152 50.166 42.207 50.166 43.6133 49.5508L52.9883 45.4297C54.9707 44.5605 56.2598 42.5879 56.2598 40.4199V28.7891C56.2598 26.5137 54.8535 24.4824 52.7344 23.6719L43.3594 20.1172C43.2324 20.0684 43.1055 20.0293 42.9785 19.9902V9.0332C42.9785 6.75781 41.5723 4.72656 39.4531 3.91602L30.0781 0.361328C28.8281 -0.107422 27.4512 -0.107422 26.2012 0.361328L16.8262 3.91602C14.6875 4.72656 13.2812 6.76758 13.2812 9.0332ZM38.2812 20.5664L30.2344 23.6133V14.9023L38.2812 11.8164V20.5664ZM15.1172 24.5019L22.7734 27.4023L14.8438 30.4395L6.91406 27.4023L14.5703 24.5019C14.7461 24.4336 14.9414 24.4336 15.127 24.5019H15.1172ZM16.9531 44.4629V34.6484L25 31.5625V40.9277L16.9531 44.4629ZM41.1328 24.5019C41.3086 24.4336 41.5039 24.4336 41.6895 24.5019L49.3457 27.4023L41.4062 30.4395L33.4766 27.4023L41.1328 24.5019ZM51.0938 41.1328L43.5156 44.4629V34.6484L51.5625 31.5625V40.4199C51.5625 40.7324 51.377 41.0059 51.0938 41.1328Z" fill="black"/>
</g>
<defs>
<clipPath id="clip0_4244_683">
<rect width="56.25" height="50" fill="white"/>
</clipPath>
</defs>
</svg>
