<svg width="155" height="26" viewBox="0 0 155 26" fill="none" xmlns="http://www.w3.org/2000/svg">
<g clip-path="url(#clip0_4234_164)">
<path d="M79.9393 0.0561523H79.5278V26H79.9393V0.0561523Z" fill="#231F20"/>
<path d="M39.382 2.80778C39.8522 1.68467 41.3804 1.68467 42.6736 1.68467H42.9087V0C42.9087 0 38.0888 0.112311 36.6194 0.112311C35.0911 0.112311 30.5063 0 30.5063 0V1.68467H30.7415C31.9758 1.68467 33.5041 1.68467 34.0331 2.86393C34.3858 4.5486 34.5033 6.23326 34.4445 7.91793V18.2505C34.5033 19.9352 34.3858 21.6199 34.0331 23.3045C33.5629 24.4838 32.0346 24.4838 30.7415 24.4838H30.5063V26.1123C30.5063 26.1123 34.3858 25.9438 36.5606 25.9438C39.0293 25.9438 42.8499 26.1123 42.8499 26.1123V24.4838H42.6148C41.3804 24.4838 39.8522 24.4838 39.3232 23.3045C38.9705 21.6199 38.853 19.9352 38.9705 18.2505V7.86177C38.9705 6.17711 39.0881 4.49244 39.382 2.80778Z" fill="#F76902"/>
<path d="M46.5527 0.0561523V6.79481H48.1985V6.57019C48.3749 2.19006 50.0795 2.0216 54.0764 2.0216H54.4879C55.4871 2.0216 56.3688 2.0216 56.7803 2.35853C56.8978 2.47084 56.9566 2.69546 56.9566 2.86393V20.5529C56.9566 23.1922 56.6039 24.2592 52.7245 24.4276H52.4894V26.0562C52.4894 26.0562 57.0154 25.8877 59.6017 25.8877C61.6001 25.8877 66.0673 26.0562 66.0673 26.0562V24.4838H65.8322C61.9528 24.3153 61.6001 23.2484 61.6001 20.6091V2.86393C61.6001 2.69546 61.6589 2.52699 61.7765 2.41468C62.2467 1.96544 63.4811 2.0216 64.4215 2.0216H64.9505C68.8299 2.0216 70.0643 3.08855 70.2994 6.57019V6.79481H72.004V0.0561523C72.004 0.0561523 62.1879 0.112308 59.3078 0.112308C56.3688 0.112308 46.5527 0.0561523 46.5527 0.0561523Z" fill="#F76902"/>
<path d="M26.8032 24.3715C25.2749 24.3153 23.8642 23.6415 22.9826 22.4622L14.9298 13.6458C19.1619 13.1404 21.7482 10.5011 21.7482 6.62634C21.9245 4.43628 20.749 2.30237 18.7505 1.23541C16.752 0.336926 14.5184 -0.112318 12.2848 -7.09109e-06C11.4619 -7.09109e-06 9.40463 0.0561484 7.17103 0.0561484C4.93743 0.0561484 0 -7.09109e-06 0 -7.09109e-06V1.6285H0.352673C1.64581 1.6285 3.0565 1.6285 3.46796 2.80777C3.76185 4.38012 3.87941 6.00863 3.82063 7.58099V18.1944C3.82063 19.5983 3.82063 20.946 3.64429 22.3499C3.58551 22.6307 3.52673 22.9676 3.46796 23.2484C3.0565 24.4276 1.52825 24.4276 0.235116 24.4276H0V26.0562C0 26.0562 3.76185 25.8877 6.28934 25.8877C8.46416 25.8877 12.226 26.0562 12.226 26.0562V24.4276H11.8733C10.639 24.4276 9.16951 24.4276 8.75806 23.2484C8.6405 22.9676 8.58172 22.6307 8.58172 22.3499C8.46416 21.0583 8.40538 19.7667 8.40538 18.4752V14.1512C9.93364 14.1512 10.0512 14.3196 10.8153 15.2181C10.9329 15.3866 11.1092 15.5551 11.3443 15.7797L18.0451 23.6976L20.0436 26.0562C20.0436 26.0562 22.2184 25.9438 23.2764 25.9438C24.8047 25.9438 27.0383 26.0562 27.0383 26.0562V24.4838L26.8032 24.3715ZM8.40538 12.3542V2.92008C8.40538 2.52699 8.40538 2.02159 8.69928 1.85312C9.52218 1.79697 10.4039 1.79697 11.2268 1.85312C14.6947 1.85312 16.6932 3.76241 16.6932 7.13174C16.6932 9.60258 15.9879 11.0065 14.5184 11.6803C13.0489 12.3542 8.40538 12.3542 8.40538 12.3542Z" fill="#F76902"/>
<path d="M86.7578 12.9158C86.699 10.8942 87.4044 8.92872 88.7563 7.35637C90.167 5.89632 92.1067 5.05399 94.2227 5.11015C95.8685 5.05399 97.4556 5.55939 98.7487 6.57019C99.8067 7.46868 100.512 8.76025 100.63 10.1641H97.5731C97.4556 9.43412 97.0441 8.81641 96.4563 8.31101C95.8097 7.86177 95.0456 7.63714 94.2815 7.63714C92.9884 7.58099 91.754 8.14254 90.9899 9.15334C90.2257 10.2765 89.8731 11.568 89.8731 12.8596C89.8143 14.2073 90.2845 15.4989 91.0486 16.5659C91.754 17.5205 92.9884 18.0821 94.2227 18.0821C95.0456 18.0821 95.8685 17.8574 96.5151 17.352C97.1029 16.9028 97.5143 16.2289 97.6319 15.4428H100.747C100.688 16.1166 100.512 16.7343 100.218 17.352C99.9243 17.9698 99.454 18.5313 98.925 18.9806C98.3372 19.486 97.6907 19.879 96.9853 20.1037C96.1036 20.3844 95.1632 20.5529 94.2227 20.5529C92.1655 20.6091 90.2257 19.8229 88.8151 18.3628C87.4631 16.959 86.699 14.9374 86.7578 12.9158Z" fill="#231F20"/>
<path d="M104.92 11.3434H104.979C105.214 10.838 105.626 10.3326 106.096 9.99566C106.566 9.65873 107.154 9.54642 107.683 9.54642H108.094L108.388 9.60257V12.0734H108.329C107.506 11.9611 106.625 12.1857 105.919 12.6911C105.273 13.3088 104.92 14.2073 104.979 15.1058V20.3283H102.04V9.65873H104.92V11.3434Z" fill="#231F20"/>
<path d="M108.859 14.9935C108.8 13.4773 109.388 12.0734 110.504 11.0065C112.855 8.81641 116.559 8.81641 118.91 11.0065C119.968 12.0734 120.556 13.5335 120.556 14.9935C120.614 16.4536 120.027 17.9136 118.91 18.9806C116.559 21.1706 112.855 21.1706 110.504 18.9806C109.388 17.9136 108.8 16.4536 108.859 14.9935ZM117.558 14.9935C117.617 14.095 117.323 13.1965 116.794 12.4665C115.853 11.3434 114.207 11.1749 113.032 12.0734C112.855 12.1857 112.738 12.3542 112.62 12.4665C112.091 13.1965 111.856 14.095 111.915 14.9935C111.856 15.892 112.15 16.7905 112.62 17.5205C113.561 18.6436 115.265 18.8121 116.382 17.9136C116.559 17.8013 116.676 17.689 116.794 17.5205C117.323 16.7905 117.558 15.892 117.558 14.9935Z" fill="#231F20"/>
<path d="M128.55 19.149C128.315 19.5983 127.903 19.9352 127.433 20.216C126.728 20.5529 126.022 20.6652 125.258 20.6091C124.259 20.6652 123.26 20.3283 122.437 19.7667C121.731 19.149 121.32 18.2505 121.32 17.3521C121.261 16.3413 121.79 15.4428 122.613 14.8812C123.612 14.3197 124.67 14.0389 125.787 13.9266C126.492 13.8704 127.139 13.7019 127.844 13.5335C128.256 13.4212 128.491 13.0842 128.491 12.7473C128.491 12.3542 128.315 12.0173 128.021 11.8488C127.609 11.6242 127.139 11.4557 126.61 11.5119C126.081 11.4557 125.493 11.6242 125.023 11.8488C124.67 12.1296 124.435 12.5227 124.435 12.9719H121.79C121.79 12.0173 122.202 11.1188 122.907 10.5011C123.965 9.77106 125.199 9.37797 126.492 9.43413C127.786 9.32182 129.079 9.71491 130.078 10.5011C130.842 11.2873 131.254 12.3542 131.195 13.4212V18.8121C131.195 19.149 131.195 19.486 131.312 19.7667C131.371 19.9914 131.43 20.1598 131.606 20.2721V20.3845H128.726C128.608 20.216 128.55 20.0475 128.491 19.8791C128.667 19.5983 128.608 19.3737 128.55 19.149ZM128.55 16.5659V14.9374C128.256 15.1058 127.962 15.2181 127.609 15.2743C127.257 15.3866 126.845 15.4428 126.492 15.5551C125.905 15.6674 125.317 15.8359 124.788 16.1166C124.435 16.3413 124.2 16.7343 124.2 17.1836C124.141 17.5767 124.376 17.9698 124.67 18.2505C125.023 18.4752 125.493 18.5875 125.905 18.5313C126.61 18.5875 127.315 18.3067 127.844 17.9136C128.315 17.5767 128.608 17.0713 128.55 16.5659Z" fill="#231F20"/>
<path d="M132.37 9.65873H133.898V6.34555H136.779V9.65873H138.718V11.5119H136.779V17.1836C136.779 17.4643 136.896 17.8013 137.072 18.0259C137.308 18.1944 137.601 18.3067 137.895 18.2505H138.777V20.3283H138.307H136.955C136.25 20.3844 135.485 20.1598 134.898 19.8229C134.192 19.3175 133.84 18.5313 133.957 17.7451V11.4557H132.429V9.65873H132.37Z" fill="#231F20"/>
<path d="M140.247 5.44708H143.244V7.97408H140.305L140.247 5.44708ZM140.247 9.60259H143.244V20.3283H140.305L140.247 9.60259Z" fill="#231F20"/>
<path d="M151.826 19.149C151.591 19.5983 151.179 19.9352 150.709 20.216C150.004 20.5529 149.299 20.6652 148.534 20.6091C147.535 20.6652 146.536 20.3283 145.713 19.7667C145.008 19.149 144.596 18.2505 144.596 17.3521C144.537 16.3413 145.066 15.4428 145.889 14.8812C146.889 14.3197 147.947 14.0389 149.063 13.9266C149.769 13.8704 150.415 13.7019 151.121 13.5335C151.532 13.4212 151.767 13.0842 151.767 12.7473C151.767 12.3542 151.591 12.0173 151.297 11.8488C150.886 11.6242 150.415 11.4557 149.886 11.5119C149.357 11.4557 148.77 11.6242 148.299 11.8488C147.947 12.1296 147.712 12.5227 147.712 12.9719H145.008C145.008 12.0173 145.478 11.1188 146.242 10.5011C147.3 9.77106 148.534 9.37797 149.828 9.43413C151.121 9.32182 152.414 9.71491 153.413 10.5011C154.177 11.2873 154.589 12.3542 154.53 13.4212V18.8121C154.53 19.149 154.53 19.486 154.647 19.7667C154.706 19.9914 154.765 20.1598 154.941 20.2721V20.3845H152.061C151.944 20.216 151.885 20.0475 151.885 19.8229C151.885 19.5421 151.885 19.3737 151.826 19.149ZM151.826 16.5659V14.9374C151.532 15.1058 151.238 15.2181 150.886 15.2743C150.533 15.3866 150.121 15.4428 149.769 15.5551C149.181 15.6674 148.593 15.8359 148.064 16.1166C147.712 16.3413 147.476 16.7343 147.476 17.1836C147.418 17.5767 147.653 17.9698 147.947 18.2505C148.299 18.4752 148.77 18.5875 149.181 18.5313C149.886 18.5875 150.592 18.3067 151.121 17.9136C151.591 17.5767 151.826 17.0713 151.826 16.5659Z" fill="#231F20"/>
</g>
<defs>
<clipPath id="clip0_4234_164">
<rect width="155" height="26" fill="white"/>
</clipPath>
</defs>
</svg>
