<svg width="30" height="19" viewBox="0 0 30 19" fill="none" xmlns="http://www.w3.org/2000/svg">
<g clip-path="url(#clip0_4330_1046)">
<path d="M29.3693 2.97258C29.0284 1.80806 28.0057 0.88871 26.7102 0.566935C24.375 0 15 0 15 0C15 0 5.625 0 3.27273 0.566935C1.97727 0.873387 0.971591 1.79274 0.613636 2.97258C0 5.0871 0 9.5 0 9.5C0 9.5 0 13.9129 0.630682 16.0274C0.971591 17.1919 1.99432 18.1113 3.28977 18.4331C5.625 19 15 19 15 19C15 19 24.375 19 26.7273 18.4331C28.0227 18.1266 29.0284 17.2073 29.3864 16.0274C30 13.9129 30 9.5 30 9.5C30 9.5 30 5.0871 29.3693 2.97258ZM11.9318 13.5145V5.48548L19.7727 9.5L11.9318 13.5145Z" fill="white"/>
</g>
<defs>
<clipPath id="clip0_4330_1046">
<rect width="30" height="19" fill="white"/>
</clipPath>
</defs>
</svg>
