<svg width="24" height="24" viewBox="0 0 24 24" fill="none" xmlns="http://www.w3.org/2000/svg">
<g clip-path="url(#clip0_4330_1037)">
<path d="M12 0C5.4 0 0 5.4 0 12C0 18.6 5.4 24 12 24C18.6 24 24 18.6 24 12C24 5.4 18.6 0 12 0ZM8.3 17.5H6V9H8.2V17.5H8.3ZM8.3 8H6V6H8.2V8H8.3ZM18 17.5H15.7V12.4C15.7 12 15.6 11.6 15.5 11.4C15.3 11 14.9 10.8 14.3 10.8C13.6 10.8 13 11.1 12.8 11.8C12.7 12.1 12.6 12.6 12.6 13.1V17.7H10.4V9H12.5V10.2C12.8 9.8 13 9.5 13.3 9.3C13.8 9 14.3 8.8 15 8.8C15.9 8.8 16.6 9 17.1 9.5C17.7 10 17.9 10.7 17.9 11.8V17.5H18Z" fill="white"/>
</g>
<defs>
<clipPath id="clip0_4330_1037">
<rect width="24" height="24" fill="white"/>
</clipPath>
</defs>
</svg>
