<svg width="155" height="26" viewBox="0 0 155 26" fill="none" xmlns="http://www.w3.org/2000/svg">
<path d="M79.9393 0.0566406H79.5278V26.0034H79.9393V0.0566406Z" fill="white"/>
<path d="M39.382 2.80809C39.8522 1.68485 41.3804 1.68485 42.6736 1.68485H42.9087V0C42.9087 0 38.0888 0.112324 36.6194 0.112324C35.0911 0.112324 30.5063 0 30.5063 0V1.68485H30.7415C31.9758 1.68485 33.5041 1.68485 34.0331 2.86425C34.3858 4.54911 34.5033 6.23396 34.4445 7.91882V18.2526C34.5033 19.9375 34.3858 21.6223 34.0331 23.3072C33.5629 24.4866 32.0346 24.4866 30.7415 24.4866H30.5063V26.1153C30.5063 26.1153 34.3858 25.9468 36.5606 25.9468C39.0293 25.9468 42.8499 26.1153 42.8499 26.1153V24.4866H42.6148C41.3804 24.4866 39.8522 24.4866 39.3232 23.3072C38.9705 21.6223 38.853 19.9375 38.9705 18.2526V7.86266C38.9705 6.1778 39.0881 4.49295 39.382 2.80809Z" fill="white"/>
<path d="M46.5527 0.0566406V6.79606H48.1985V6.57141C48.3749 2.19079 50.0795 2.0223 54.0764 2.0223H54.4879C55.4871 2.0223 56.3688 2.0223 56.7803 2.35928C56.8978 2.4716 56.9566 2.69625 56.9566 2.86473V20.5557C56.9566 23.1953 56.6039 24.2624 52.7245 24.4309H52.4894V26.0596C52.4894 26.0596 57.0154 25.8911 59.6017 25.8911C61.6001 25.8911 66.0673 26.0596 66.0673 26.0596V24.487H65.8322C61.9528 24.3186 61.6001 23.2515 61.6001 20.6119V2.86473C61.6001 2.69625 61.6589 2.52776 61.7765 2.41544C62.2467 1.96614 63.4811 2.0223 64.4215 2.0223H64.9505C68.8299 2.0223 70.0643 3.08938 70.2994 6.57141V6.79606H72.004V0.0566406C72.004 0.0566406 62.1879 0.112802 59.3078 0.112802C56.3688 0.112802 46.5527 0.0566406 46.5527 0.0566406Z" fill="white"/>
<path d="M26.8032 24.3746C25.2749 24.3184 23.8642 23.6445 22.9826 22.4651L14.9298 13.6477C19.1619 13.1422 21.7482 10.5026 21.7482 6.62746C21.9245 4.43715 20.749 2.303 18.7505 1.23592C16.752 0.337332 14.5184 -0.111963 12.2848 0.000361031C11.4619 0.000361031 9.40463 0.0565229 7.17103 0.0565229C4.93743 0.0565229 0 0.000361031 0 0.000361031V1.62905H0.352673C1.64581 1.62905 3.0565 1.62905 3.46796 2.80845C3.76185 4.38098 3.87941 6.00968 3.82063 7.58221V18.1968C3.82063 19.6008 3.82063 20.9487 3.64429 22.3528C3.58551 22.6336 3.52673 22.9706 3.46796 23.2514C3.0565 24.4308 1.52825 24.4308 0.235116 24.4308H0V26.0595C0 26.0595 3.76185 25.891 6.28934 25.891C8.46416 25.891 12.226 26.0595 12.226 26.0595V24.4308H11.8733C10.639 24.4308 9.16951 24.4308 8.75806 23.2514C8.6405 22.9706 8.58172 22.6336 8.58172 22.3528C8.46416 21.061 8.40538 19.7693 8.40538 18.4776V14.1531C9.93364 14.1531 10.0512 14.3216 10.8153 15.2202C10.9329 15.3887 11.1092 15.5572 11.3443 15.7818L18.0451 23.7007L20.0436 26.0595C20.0436 26.0595 22.2184 25.9471 23.2764 25.9471C24.8047 25.9471 27.0383 26.0595 27.0383 26.0595V24.4869L26.8032 24.3746ZM8.40538 12.356V2.92078C8.40538 2.52764 8.40538 2.02219 8.69928 1.8537C9.52218 1.79754 10.4039 1.79754 11.2268 1.8537C14.6947 1.8537 16.6932 3.7632 16.6932 7.13291C16.6932 9.60403 15.9879 11.0081 14.5184 11.682C13.0489 12.356 8.40538 12.356 8.40538 12.356Z" fill="white"/>
<path d="M86.7578 12.9172C86.699 10.8953 87.4044 8.92967 88.7563 7.35714C90.167 5.89693 92.1067 5.0545 94.2227 5.11066C95.8685 5.0545 97.4556 5.55996 98.7487 6.57087C99.8067 7.46946 100.512 8.76118 100.63 10.1652H97.5731C97.4556 9.43513 97.0441 8.81735 96.4563 8.31189C95.8097 7.86259 95.0456 7.63795 94.2815 7.63795C92.9884 7.58179 91.754 8.1434 90.9899 9.15432C90.2257 10.2776 89.8731 11.5693 89.8731 12.861C89.8143 14.2089 90.2845 15.5006 91.0486 16.5677C91.754 17.5224 92.9884 18.0841 94.2227 18.0841C95.0456 18.0841 95.8685 17.8594 96.5151 17.3539C97.1029 16.9047 97.5143 16.2307 97.6319 15.4444H100.747C100.688 16.1184 100.512 16.7362 100.218 17.3539C99.9243 17.9717 99.454 18.5333 98.925 18.9826C98.3372 19.4881 97.6907 19.8812 96.9853 20.1059C96.1036 20.3867 95.1632 20.5552 94.2227 20.5552C92.1655 20.6113 90.2257 19.8251 88.8151 18.3649C87.4631 16.9608 86.699 14.939 86.7578 12.9172Z" fill="white"/>
<path d="M104.92 11.345H104.979C105.214 10.8396 105.626 10.3341 106.096 9.99715C106.566 9.66017 107.154 9.54785 107.683 9.54785H108.094L108.388 9.60401V12.0751H108.329C107.506 11.9628 106.625 12.1875 105.919 12.6929C105.273 13.3107 104.92 14.2093 104.979 15.1079V20.3309H102.04V9.66018H104.92V11.345Z" fill="white"/>
<path d="M108.859 14.9955C108.8 13.4791 109.388 12.075 110.504 11.008C112.855 8.81766 116.559 8.81766 118.91 11.008C119.968 12.075 120.556 13.5353 120.556 14.9955C120.614 16.4557 120.027 17.9159 118.91 18.9829C116.559 21.1733 112.855 21.1733 110.504 18.9829C109.388 17.9159 108.8 16.4557 108.859 14.9955ZM117.558 14.9955C117.617 14.0969 117.323 13.1983 116.794 12.4682C115.853 11.3449 114.207 11.1765 113.032 12.075C112.855 12.1874 112.738 12.3559 112.62 12.4682C112.091 13.1983 111.856 14.0969 111.915 14.9955C111.856 15.894 112.15 16.7926 112.62 17.5227C113.561 18.646 115.265 18.8145 116.382 17.9159C116.559 17.8036 116.676 17.6912 116.794 17.5227C117.323 16.7926 117.558 15.894 117.558 14.9955Z" fill="white"/>
<path d="M128.55 19.1519C128.315 19.6012 127.903 19.9381 127.433 20.2189C126.728 20.5559 126.022 20.6682 125.258 20.6121C124.259 20.6682 123.26 20.3313 122.437 19.7696C121.731 19.1519 121.32 18.2533 121.32 17.3547C121.261 16.3438 121.79 15.4452 122.613 14.8836C123.612 14.322 124.67 14.0411 125.787 13.9288C126.492 13.8727 127.139 13.7042 127.844 13.5357C128.256 13.4234 128.491 13.0864 128.491 12.7494C128.491 12.3563 128.315 12.0193 128.021 11.8508C127.609 11.6262 127.139 11.4577 126.61 11.5139C126.081 11.4577 125.493 11.6262 125.023 11.8508C124.67 12.1316 124.435 12.5248 124.435 12.9741H121.79C121.79 12.0193 122.202 11.1207 122.907 10.5029C123.965 9.77284 125.199 9.37971 126.492 9.43587C127.786 9.32355 129.079 9.71668 130.078 10.5029C130.842 11.2892 131.254 12.3563 131.195 13.4234V18.8149C131.195 19.1519 131.195 19.4888 131.312 19.7696C131.371 19.9943 131.43 20.1628 131.606 20.2751V20.3874H128.726C128.608 20.2189 128.55 20.0505 128.491 19.882C128.667 19.6012 128.608 19.3765 128.55 19.1519ZM128.55 16.5684V14.9397C128.256 15.1082 127.962 15.2205 127.609 15.2767C127.257 15.389 126.845 15.4452 126.492 15.5575C125.905 15.6698 125.317 15.8383 124.788 16.1191C124.435 16.3438 124.2 16.7369 124.2 17.1862C124.141 17.5793 124.376 17.9725 124.67 18.2533C125.023 18.4779 125.493 18.5903 125.905 18.5341C126.61 18.5903 127.315 18.3094 127.844 17.9163C128.315 17.5793 128.608 17.0739 128.55 16.5684Z" fill="white"/>
<path d="M132.37 9.66023H133.898V6.34668H136.779V9.66023H138.718V11.5136H136.779V17.1859C136.779 17.4667 136.896 17.8037 137.072 18.0283C137.308 18.1968 137.601 18.3092 137.895 18.253H138.777V20.331H138.307H136.955C136.25 20.3871 135.485 20.1625 134.898 19.8255C134.192 19.3201 133.84 18.5338 133.957 17.7475V11.4574H132.429V9.66023H132.37Z" fill="white"/>
<path d="M140.247 5.44824H143.244V7.97552H140.305L140.247 5.44824ZM140.247 9.60422H143.244V20.3311H140.305L140.247 9.60422Z" fill="white"/>
<path d="M151.826 19.1519C151.591 19.6012 151.179 19.9381 150.709 20.2189C150.004 20.5559 149.299 20.6682 148.534 20.6121C147.535 20.6682 146.536 20.3313 145.713 19.7696C145.008 19.1519 144.596 18.2533 144.596 17.3547C144.537 16.3438 145.066 15.4452 145.889 14.8836C146.889 14.322 147.947 14.0411 149.063 13.9288C149.769 13.8727 150.415 13.7042 151.121 13.5357C151.532 13.4234 151.767 13.0864 151.767 12.7494C151.767 12.3563 151.591 12.0193 151.297 11.8508C150.886 11.6262 150.415 11.4577 149.886 11.5139C149.357 11.4577 148.77 11.6262 148.299 11.8508C147.947 12.1316 147.712 12.5248 147.712 12.9741H145.008C145.008 12.0193 145.478 11.1207 146.242 10.5029C147.3 9.77284 148.534 9.37971 149.828 9.43587C151.121 9.32355 152.414 9.71668 153.413 10.5029C154.177 11.2892 154.589 12.3563 154.53 13.4234V18.8149C154.53 19.1519 154.53 19.4888 154.647 19.7696C154.706 19.9943 154.765 20.1628 154.941 20.2751V20.3874H152.061C151.944 20.2189 151.885 20.0505 151.885 19.8258C151.885 19.545 151.885 19.3765 151.826 19.1519ZM151.826 16.5684V14.9397C151.532 15.1082 151.238 15.2205 150.886 15.2767C150.533 15.389 150.121 15.4452 149.769 15.5575C149.181 15.6698 148.593 15.8383 148.064 16.1191C147.712 16.3438 147.476 16.7369 147.476 17.1862C147.418 17.5793 147.653 17.9725 147.947 18.2533C148.299 18.4779 148.77 18.5903 149.181 18.5341C149.886 18.5903 150.592 18.3094 151.121 17.9163C151.591 17.5793 151.826 17.0739 151.826 16.5684Z" fill="white"/>
</svg>
