<svg width="63" height="50" viewBox="0 0 63 50" fill="none" xmlns="http://www.w3.org/2000/svg">
<g clip-path="url(#clip0_4244_668)">
<path d="M14.0625 0C16.1345 0 18.1216 0.8231 19.5868 2.28823C21.0519 3.75336 21.875 5.7405 21.875 7.8125C21.875 9.8845 21.0519 11.8716 19.5868 13.3368C18.1216 14.8019 16.1345 15.625 14.0625 15.625C11.9905 15.625 10.0034 14.8019 8.53823 13.3368C7.0731 11.8716 6.25 9.8845 6.25 7.8125C6.25 5.7405 7.0731 3.75336 8.53823 2.28823C10.0034 0.8231 11.9905 0 14.0625 0ZM50 0C52.072 0 54.0591 0.8231 55.5243 2.28823C56.9894 3.75336 57.8125 5.7405 57.8125 7.8125C57.8125 9.8845 56.9894 11.8716 55.5243 13.3368C54.0591 14.8019 52.072 15.625 50 15.625C47.928 15.625 45.9409 14.8019 44.4757 13.3368C43.0106 11.8716 42.1875 9.8845 42.1875 7.8125C42.1875 5.7405 43.0106 3.75336 44.4757 2.28823C45.9409 0.8231 47.928 0 50 0ZM0 29.1699C0 23.418 4.66797 18.75 10.4199 18.75H14.5898C16.1426 18.75 17.6172 19.0918 18.9453 19.6973C18.8184 20.4004 18.7598 21.1328 18.7598 21.875C18.7598 25.6055 20.4004 28.9551 22.9883 31.25C22.9688 31.25 22.9492 31.25 22.9199 31.25H2.08008C0.9375 31.25 0 30.3125 0 29.1699ZM39.5801 31.25C39.5605 31.25 39.541 31.25 39.5117 31.25C42.1094 28.9551 43.7402 25.6055 43.7402 21.875C43.7402 21.1328 43.6719 20.4102 43.5547 19.6973C44.8828 19.082 46.3574 18.75 47.9102 18.75H52.0801C57.832 18.75 62.5 23.418 62.5 29.1699C62.5 30.3223 61.5625 31.25 60.4199 31.25H39.5898H39.5801ZM21.875 21.875C21.875 19.3886 22.8627 17.004 24.6209 15.2459C26.379 13.4877 28.7636 12.5 31.25 12.5C33.7364 12.5 36.121 13.4877 37.8791 15.2459C39.6373 17.004 40.625 19.3886 40.625 21.875C40.625 24.3614 39.6373 26.746 37.8791 28.5041C36.121 30.2623 33.7364 31.25 31.25 31.25C28.7636 31.25 26.379 30.2623 24.6209 28.5041C22.8627 26.746 21.875 24.3614 21.875 21.875ZM12.5 47.3926C12.5 40.2051 18.3301 34.375 25.5176 34.375H36.9727C44.1699 34.375 50 40.2051 50 47.3926C50 48.8281 48.8379 50 47.3926 50H15.0977C13.6621 50 12.4902 48.8379 12.4902 47.3926H12.5Z" fill="black"/>
</g>
<defs>
<clipPath id="clip0_4244_668">
<rect width="62.5" height="50" fill="white"/>
</clipPath>
</defs>
</svg>
