<svg width="63" height="50" viewBox="0 0 63 50" fill="none" xmlns="http://www.w3.org/2000/svg">
<g clip-path="url(#clip0_4244_688)">
<path d="M34.5508 5.28301L32.2461 0.615039C31.8652 -0.195508 30.6738 -0.224805 30.2539 0.615039L27.9492 5.28301L22.8418 6.01543C21.9336 6.15215 21.543 7.2752 22.2168 7.94902L25.9277 11.5623L25.0488 16.6502C24.9121 17.5584 25.8496 18.2615 26.6895 17.8416L31.2695 15.4197L35.8203 17.8025C36.6602 18.2225 37.6074 17.5193 37.4609 16.6111L36.582 11.5232L40.293 7.94902C40.957 7.28496 40.5762 6.16191 39.668 6.01543L34.5605 5.28301H34.5508ZM25 24.9998C23.2715 24.9998 21.875 26.3963 21.875 28.1248V46.8748C21.875 48.6033 23.2715 49.9998 25 49.9998H37.5C39.2285 49.9998 40.625 48.6033 40.625 46.8748V28.1248C40.625 26.3963 39.2285 24.9998 37.5 24.9998H25ZM3.125 31.2498C1.39648 31.2498 0 32.6463 0 34.3748V46.8748C0 48.6033 1.39648 49.9998 3.125 49.9998H15.625C17.3535 49.9998 18.75 48.6033 18.75 46.8748V34.3748C18.75 32.6463 17.3535 31.2498 15.625 31.2498H3.125ZM43.75 40.6248V46.8748C43.75 48.6033 45.1465 49.9998 46.875 49.9998H59.375C61.1035 49.9998 62.5 48.6033 62.5 46.8748V40.6248C62.5 38.8963 61.1035 37.4998 59.375 37.4998H46.875C45.1465 37.4998 43.75 38.8963 43.75 40.6248Z" fill="black"/>
</g>
<defs>
<clipPath id="clip0_4244_688">
<rect width="62.5" height="50" fill="white"/>
</clipPath>
</defs>
</svg>
